# xmcd
#
# Track frame offsets:
#	150
#	18555
#	43230
#	64009
#	91502
#	113103
#	130285
#	147046
#	170311
#	185315
#	200244
#	218899
#
# Disc length: 2943 seconds
#
# Revision: 0
# Processed by: cddbd v1.4PL0 Copyright (c) Steve Scherf et al.
# Submitted via: dBpowerAMP V4.0
#
DISCID=a90b7d0c
DTITLE=Bjørn Jens - Den Siste Villing
DYEAR=2003
DGENRE=Country
TTITLE0=Den Siste Villing
TTITLE1=Det Brant Alltid Et Lys
TTITLE2=Overheat In A Heartbeat
TTITLE3=Gråmåsen
TTITLE4=Mått`n Tytje Ta De!
TTITLE5=Du Tråkker På Roser
TTITLE6=Aldri Ro I Ræva
TTITLE7=Written In The Stars
TTITLE8=Bli Med Hjæm Og Grynne
TTITLE9=Verst For Oss
TTITLE10=Play Me An Elvis Song
TTITLE11=Unknown Track
EXTD=
EXTT0=
EXTT1=
EXTT2=
EXTT3=
EXTT4=
EXTT5=
EXTT6=
EXTT7=
EXTT8=
EXTT9=
EXTT10=
EXTT11=
PLAYORDER=
